<?xml version="1.0" encoding="UTF-8" ?>
<svg version="1.1" width="64" height="64" xmlns="http://www.w3.org/2000/svg" shape-rendering="crispEdges">
<rect x="28" y="0" width="8" height="8" fill="#00FF80" />
<rect x="24" y="4" width="4" height="4" fill="#00FF80" />
<rect x="36" y="4" width="4" height="4" fill="#00FF80" />
<rect x="16" y="8" width="4" height="4" fill="#00FF80" />
<rect x="44" y="8" width="4" height="4" fill="#00FF80" />
<rect x="12" y="12" width="4" height="4" fill="#00FF80" />
<rect x="48" y="12" width="4" height="4" fill="#00FF80" />
<rect x="8" y="16" width="4" height="4" fill="#00FF80" />
<rect x="52" y="16" width="4" height="4" fill="#00FF80" />
<rect x="28" y="20" width="8" height="24" fill="#00FF80" />
<rect x="4" y="24" width="4" height="16" fill="#00FF80" />
<rect x="24" y="24" width="4" height="16" fill="#00FF80" />
<rect x="36" y="24" width="4" height="16" fill="#00FF80" />
<rect x="56" y="24" width="4" height="12" fill="#00FF80" />
<rect x="0" y="28" width="4" height="8" fill="#00FF80" />
<rect x="20" y="28" width="4" height="8" fill="#00FF80" />
<rect x="40" y="28" width="4" height="8" fill="#00FF80" />
<rect x="60" y="28" width="4" height="8" fill="#00FF80" />
<rect x="52" y="40" width="4" height="8" fill="#00FF80" />
<rect x="8" y="44" width="4" height="4" fill="#00FF80" />
<rect x="12" y="48" width="4" height="4" fill="#00FF80" />
<rect x="48" y="48" width="4" height="4" fill="#00FF80" />
<rect x="16" y="52" width="4" height="4" fill="#00FF80" />
<rect x="44" y="52" width="4" height="4" fill="#00FF80" />
<rect x="24" y="56" width="16" height="4" fill="#00FF80" />
<rect x="28" y="60" width="8" height="4" fill="#00FF80" />
</svg>